<?xml version="1.0" standalone="no"?>
<!DOCTYPE svg PUBLIC "-//W3C//DTD SVG 20010904//EN"
 "http://www.w3.org/TR/2001/REC-SVG-20010904/DTD/svg10.dtd">
<svg version="1.0" xmlns="http://www.w3.org/2000/svg"
 width="460.000000pt" height="460.000000pt" viewBox="0 0 460.000000 460.000000"
 preserveAspectRatio="xMidYMid meet">
<metadata>
Created by potrace 1.14, written by Peter Selinger 2001-2017
</metadata>
<g transform="translate(0.000000,460.000000) scale(0.100000,-0.100000)"
fill="#000000" stroke="none">
<path d="M0 3560 l0 -1040 62 0 c163 0 507 73 683 144 69 29 395 155 460 179
39 14 158 54 265 88 107 34 203 67 212 73 28 17 32 0 13 -51 -40 -110 -121
-247 -200 -342 -51 -61 -216 -217 -268 -252 -146 -101 -406 -202 -587 -229
-30 -5 -93 -16 -140 -24 -47 -8 -179 -18 -293 -22 l-207 -7 0 -135 0 -135 193
6 c423 13 769 96 1096 264 46 24 88 43 93 43 36 0 -61 -137 -178 -251 -140
-135 -465 -380 -564 -425 -105 -48 -300 -86 -572 -110 l-68 -6 0 -338 0 -339
95 40 c266 110 614 286 755 381 270 181 414 280 493 340 103 78 480 371 487
378 3 3 23 19 46 35 47 35 81 62 297 245 88 74 194 164 236 199 42 35 94 80
116 100 22 20 90 79 150 131 61 52 112 97 115 100 3 4 46 40 95 82 112 94 449
381 490 417 28 24 128 109 185 157 69 58 364 318 510 450 91 81 178 160 194
174 75 65 149 132 239 219 l97 95 0 203 0 203 -344 0 -344 0 -15 -24 c-9 -13
-22 -30 -30 -37 -8 -8 -26 -32 -40 -54 -15 -22 -35 -51 -44 -65 -29 -42 -245
-282 -297 -330 -69 -64 -143 -118 -201 -147 -54 -28 -176 -66 -184 -58 -2 3 5
22 16 43 68 123 86 157 132 250 58 114 114 253 142 352 11 36 19 66 19 67 0 2
-71 3 -158 3 l-159 0 -12 -42 c-92 -321 -236 -585 -420 -768 -71 -71 -126
-114 -211 -166 -230 -141 -218 -134 -450 -237 -157 -69 -290 -118 -301 -111
-5 3 3 17 17 32 22 23 74 92 194 252 168 226 308 576 366 915 8 50 17 98 20
108 5 16 -54 17 -1145 17 l-1151 0 0 -1040z m1941 940 l-7 -35 -5 32 c-3 18
-2 30 3 27 4 -3 8 0 8 7 0 7 2 10 4 8 3 -2 1 -20 -3 -39z m-24 -42 c-2 -13 -4
-5 -4 17 -1 22 1 32 4 23 2 -10 2 -28 0 -40z m-346 -176 c-6 -2 -11 -11 -11
-20 0 -13 -3 -13 -12 -4 -10 10 -10 15 -1 20 6 4 15 36 20 72 l8 65 3 -65 c2
-39 -1 -66 -7 -68z m-89 106 c-15 -18 -3 -71 14 -64 8 3 14 -1 14 -10 0 -8 5
-12 10 -9 6 3 10 2 10 -4 0 -17 -17 -21 -30 -6 -6 7 -17 12 -24 9 -10 -4 -13
7 -11 43 3 56 2 53 16 53 8 0 8 -4 1 -12z m-841 -24 c103 -31 178 -95 229
-194 30 -58 33 -184 6 -245 -46 -106 -131 -181 -242 -211 -156 -42 -327 36
-396 181 -23 50 -28 73 -28 140 0 68 5 90 29 141 46 99 107 152 208 184 73 24
124 24 194 4z m1039 6 c0 -5 -10 -10 -22 -9 -22 0 -22 1 -3 9 11 5 21 9 23 9
1 1 2 -3 2 -9z m221 3 c10 -88 -3 -135 -32 -117 -5 3 -9 0 -9 -6 0 -6 -4 -9
-10 -5 -5 3 -8 11 -6 18 1 7 1 9 -1 4 -3 -4 -9 -5 -14 -1 -5 3 -9 1 -9 -5 0
-6 -6 -8 -14 -5 -8 3 -17 1 -21 -5 -10 -17 -25 -13 -25 7 0 15 62 82 75 82 3
0 5 -9 5 -20 0 -11 7 -20 15 -20 8 0 15 9 15 20 0 11 5 20 11 20 6 0 8 9 4 20
-4 11 -2 20 4 20 6 0 11 -3 12 -7z m-421 -103 c0 -5 -4 -10 -10 -10 -5 0 -10
5 -10 10 0 6 5 10 10 10 6 0 10 -4 10 -10z m2990 -13 c0 -17 -111 -132 -259
-267 -63 -58 -119 -110 -125 -115 -6 -6 -58 -53 -116 -105 -58 -52 -162 -147
-231 -210 -68 -63 -199 -180 -289 -260 -91 -79 -170 -149 -176 -155 -6 -5
-125 -107 -264 -225 -139 -118 -380 -323 -534 -455 -379 -324 -712 -599 -950
-783 -620 -479 -810 -600 -1210 -771 -176 -75 -170 -59 29 81 66 47 161 114
210 149 50 35 128 89 175 119 75 48 383 272 490 355 40 31 489 393 596 480 33
28 108 88 165 135 123 100 464 382 746 617 110 92 248 206 305 253 56 47 112
93 123 102 11 9 52 43 91 75 39 32 182 153 319 268 296 251 373 314 625 510
106 83 198 155 204 160 18 17 68 55 72 55 2 0 4 -6 4 -13z m-3010 -18 c0 -5
-4 -9 -10 -9 -5 0 -10 7 -10 16 0 8 5 12 10 9 6 -3 10 -10 10 -16z m213 14
c-7 -2 -21 -2 -30 0 -10 3 -4 5 12 5 17 0 24 -2 18 -5z m217 -22 c0 -6 -4 -13
-10 -16 -5 -3 -10 1 -10 9 0 9 5 16 10 16 6 0 10 -4 10 -9z m-410 -21 c0 -5
-4 -10 -10 -10 -5 0 -10 5 -10 10 0 6 5 10 10 10 6 0 10 -4 10 -10z m323 -59
l5 -26 -24 28 c-29 34 -31 52 -5 35 11 -6 22 -23 24 -37z m77 29 c0 -5 -4 -10
-10 -10 -5 0 -10 5 -10 10 0 6 5 10 10 10 6 0 10 -4 10 -10z m-440 -20 c0 -5
-4 -10 -10 -10 -5 0 -10 5 -10 10 0 6 5 10 10 10 6 0 10 -4 10 -10z m386 -79
c-15 -14 -16 -13 -16 12 0 15 5 27 11 27 5 0 7 5 4 10 -3 6 -3 16 2 23 5 8 9
0 11 -22 2 -21 -2 -40 -12 -50z m-416 19 c0 -5 -4 -10 -10 -10 -5 0 -10 5 -10
10 0 6 5 10 10 10 6 0 10 -4 10 -10z m370 -9 c0 -11 -4 -23 -10 -26 -6 -4 -10
5 -10 19 0 14 5 26 10 26 6 0 10 -9 10 -19z m-354 -28 c-10 -10 -19 5 -10 18
6 11 8 11 12 0 2 -7 1 -15 -2 -18z m-69 -95 c-3 -7 -5 -2 -5 12 0 14 2 19 5
13 2 -7 2 -19 0 -25z m340 -31 c3 -20 -13 -57 -25 -57 -7 0 -8 51 -3 100 2 18
24 -15 28 -43z m87 34 c8 -12 -29 -52 -39 -43 -4 4 -6 -7 -3 -25 2 -18 1 -30
-4 -27 -4 3 -8 1 -8 -5 0 -5 5 -11 12 -13 7 -3 6 -7 -5 -11 -14 -5 -17 0 -17
24 0 31 25 89 44 101 14 10 14 10 20 -1z m-424 -27 c0 -2 -7 -4 -15 -4 -8 0
-15 4 -15 10 0 5 7 7 15 4 8 -4 15 -8 15 -10z m-80 -124 c0 -5 -4 -10 -10 -10
-5 0 -10 5 -10 10 0 6 5 10 10 10 6 0 10 -4 10 -10z m-87 -109 c-3 -11 -11
-17 -19 -14 -10 4 -11 8 -1 19 17 19 26 17 20 -5z m454 -17 c-3 -3 -12 -4 -19
-1 -8 3 -5 6 6 6 11 1 17 -2 13 -5z m-497 -14 c0 -5 -5 -10 -11 -10 -5 0 -7 5
-4 10 3 6 8 10 11 10 2 0 4 -4 4 -10z m90 -17 c-8 -3 -18 -11 -22 -16 -4 -7
-12 -6 -22 2 -14 11 -16 11 -16 -3 0 -19 -23 -46 -39 -46 -17 0 -13 28 7 39
16 10 15 11 -3 12 -14 1 -11 4 10 9 35 9 107 11 85 3z m227 -1 c19 -12 5 -47
-27 -65 -36 -22 -40 -21 -40 3 0 11 -5 20 -11 20 -5 0 -7 5 -4 10 3 6 17 10
31 10 15 0 24 6 24 15 0 17 9 19 27 7z m-367 -37 c0 -8 -7 -15 -16 -15 -14 0
-14 3 -4 15 7 8 14 15 16 15 2 0 4 -7 4 -15z m-35 -35 c-3 -5 -12 -10 -18 -10
-7 0 -6 4 3 10 19 12 23 12 15 0z m-55 -50 c0 -5 -4 -10 -10 -10 -5 0 -10 5
-10 10 0 6 5 10 10 10 6 0 10 -4 10 -10z m-65 -58 c-15 -16 -16 -15 -4 12 7
15 15 23 17 16 3 -7 -3 -19 -13 -28z m57 16 c-6 -21 -7 -21 -10 -4 -3 15 -6
16 -13 5 -7 -11 -9 -11 -9 4 0 10 8 17 19 17 15 0 18 -5 13 -22z m408 -48 c13
-9 13 -11 0 -20 -11 -7 -18 -5 -26 5 -6 8 -14 12 -17 8 -4 -3 -7 -1 -7 5 0 14
29 15 50 2z m-570 -30 c0 -5 -4 -10 -10 -10 -5 0 -10 5 -10 10 0 6 5 10 10 10
6 0 10 -4 10 -10z m37 -16 c-3 -3 -12 -4 -19 -1 -8 3 -5 6 6 6 11 1 17 -2 13
-5z m423 -72 c0 -10 -6 -19 -14 -19 -11 0 -12 4 -3 19 7 10 13 18 14 18 2 0 3
-8 3 -18z m-546 -9 c-12 -2 -26 -13 -31 -25 -9 -20 -9 -20 -25 4 l-16 25 46 0
c26 0 37 -2 26 -4z m506 -8 c0 -12 -19 -12 -23 0 -4 9 -1 12 9 8 7 -3 14 -7
14 -8z m-758 -70 c-2 -14 -8 -25 -13 -25 -5 0 -9 -12 -9 -26 0 -14 4 -23 10
-19 15 9 12 -4 -4 -21 -17 -16 -166 -20 -166 -5 0 5 -12 10 -27 10 -51 2 -62
4 -57 13 3 4 -8 8 -25 8 -16 0 -31 -6 -33 -12 -4 -10 -9 -9 -21 3 -14 15 -11
17 41 23 31 3 67 8 78 12 16 4 23 0 27 -16 3 -12 10 -19 16 -15 6 3 11 1 11
-5 0 -6 10 -2 22 10 25 23 21 21 68 24 20 1 41 6 48 10 16 9 15 33 0 39 -7 2
-5 3 4 2 10 -2 21 1 24 6 9 15 11 10 6 -16z m60 -21 c-5 -26 -27 -23 -35 5 -3
14 1 19 18 19 17 0 21 -5 17 -24z m-2 -60 c0 -2 -7 -4 -15 -4 -8 0 -15 4 -15
10 0 5 7 7 15 4 8 -4 15 -8 15 -10z m100 -19 c0 -8 -4 -15 -10 -15 -5 0 -10 7
-10 15 0 8 5 15 10 15 6 0 10 -7 10 -15z m-340 -55 c0 -5 -5 -10 -11 -10 -5 0
-7 5 -4 10 3 6 8 10 11 10 2 0 4 -4 4 -10z m163 -20 c-3 -12 -8 -19 -11 -16
-5 6 5 36 12 36 2 0 2 -9 -1 -20z m32 -70 c3 -6 -1 -17 -9 -26 -9 -9 -14 -20
-11 -25 4 -5 -1 -9 -10 -9 -9 0 -13 -4 -10 -10 10 -16 -11 -12 -25 5 -15 18
-10 25 19 28 22 1 28 12 11 22 -6 4 -8 11 -5 16 8 12 32 12 40 -1z m75 -10 c0
-5 -8 -10 -17 -10 -15 0 -16 2 -3 10 19 12 20 12 20 0z m175 0 c3 -6 -4 -10
-17 -10 -18 0 -20 2 -8 10 19 12 18 12 25 0z m-182 -77 c-7 -2 -21 -2 -30 0
-10 3 -4 5 12 5 17 0 24 -2 18 -5z m-156 -9 c-3 -3 -12 -4 -19 -1 -8 3 -5 6 6
6 11 1 17 -2 13 -5z m67 -15 c-6 -11 -24 -2 -24 11 0 5 7 7 15 4 8 -4 12 -10
9 -15z m-64 -14 c0 -12 -14 -15 -72 -14 -91 1 -82 5 65 28 4 0 7 -6 7 -14z"/>
<path d="M440 3170 c-23 -7 -23 -8 -3 -9 12 -1 25 4 28 9 3 6 5 10 3 9 -2 -1
-14 -5 -28 -9z"/>
<path d="M4507 3998 c-48 -51 -87 -96 -87 -100 0 -4 -4 -8 -9 -8 -5 0 -40 -30
-78 -67 -38 -38 -124 -121 -191 -186 -67 -64 -122 -122 -122 -127 0 -6 -5 -10
-11 -10 -6 0 -28 -17 -49 -37 -21 -21 -43 -42 -49 -48 -31 -29 -209 -225 -230
-253 -13 -17 -31 -32 -40 -32 -25 0 -61 -29 -55 -45 3 -7 -4 -18 -16 -25 -11
-6 -18 -15 -16 -19 7 -10 -28 -43 -37 -35 -3 3 -3 -5 0 -18 4 -18 3 -20 -6 -8
-9 13 -11 13 -11 -2 0 -9 -8 -17 -17 -17 -40 -1 -53 -5 -53 -14 0 -5 10 -7 23
-4 21 6 21 5 3 -8 -10 -8 -23 -12 -29 -8 -6 4 -8 -2 -5 -15 4 -12 2 -20 -3
-16 -10 6 -10 2 -13 -63 0 -22 -4 -39 -7 -37 -13 7 -47 -43 -38 -57 6 -10 9
-11 9 -1 0 6 7 12 15 12 8 0 24 9 35 20 16 16 20 17 20 5 0 -8 -4 -15 -10 -15
-5 0 -22 -13 -37 -30 -14 -16 -31 -30 -36 -30 -5 0 -18 -11 -29 -25 -11 -14
-24 -23 -29 -20 -5 4 -9 -1 -9 -9 0 -8 -9 -18 -20 -21 -11 -3 -20 -11 -20 -16
0 -6 -9 -8 -19 -4 -11 3 -23 0 -27 -6 -5 -9 -11 -7 -21 6 -10 15 -16 16 -25 7
-9 -9 -6 -14 13 -21 21 -9 22 -10 4 -11 -12 -1 -15 -4 -7 -7 7 -3 22 3 33 13
28 25 23 9 -8 -26 -14 -17 -32 -30 -40 -30 -7 0 -13 -3 -13 -7 0 -5 -13 -8
-29 -8 -16 0 -29 2 -28 5 1 3 -2 6 -7 8 -6 1 -11 -5 -12 -14 -3 -20 -34 -54
-34 -37 0 7 5 15 10 18 6 3 10 16 10 28 0 13 -3 17 -8 11 -4 -6 -22 -11 -41
-12 -18 0 -39 -6 -44 -11 -6 -6 -19 -11 -29 -11 -11 0 -18 -7 -18 -20 0 -10
-9 -24 -19 -29 -16 -9 -18 -8 -14 9 4 15 2 19 -10 14 -8 -3 -18 -21 -22 -41
-5 -26 -9 -33 -17 -25 -8 8 -7 16 3 28 13 16 12 16 -9 3 -14 -9 -21 -21 -18
-32 3 -14 1 -16 -9 -7 -12 10 -45 4 -45 -9 0 -3 -12 -19 -27 -36 -18 -18 -21
-26 -10 -22 9 3 19 1 23 -5 5 -8 -2 -9 -23 -5 -27 5 -39 -3 -123 -82 -63 -60
-90 -92 -85 -101 6 -10 2 -12 -14 -7 -20 5 -22 3 -17 -18 4 -15 1 -25 -9 -29
-8 -3 -24 -20 -35 -38 -19 -32 -20 -32 -21 -8 l-1 25 -8 -25 c-4 -14 -8 -19
-9 -12 -1 6 -5 12 -11 12 -5 0 -7 -13 -4 -29 7 -35 -6 -44 -41 -31 -24 9 -27
8 -22 -9 4 -18 -22 -50 -47 -56 -6 -1 -22 -7 -36 -13 -19 -8 -21 -11 -7 -11
23 -1 12 -21 -12 -21 -25 0 -86 -56 -69 -63 9 -4 3 -13 -17 -29 -16 -12 -41
-35 -55 -50 -13 -16 -34 -28 -47 -28 -13 0 -30 -12 -44 -31 -16 -23 -27 -30
-45 -26 -19 3 -26 -1 -30 -19 -3 -13 -11 -24 -18 -24 -6 0 -28 -11 -47 -25
-20 -13 -39 -22 -42 -18 -8 7 -37 -22 -37 -36 0 -6 -6 -11 -13 -11 -7 0 -26
-13 -42 -30 -16 -16 -32 -30 -37 -30 -4 0 -31 -22 -59 -50 -28 -27 -55 -48
-59 -45 -10 6 -94 -74 -103 -98 -5 -13 -16 -17 -40 -15 -37 2 -60 -8 -54 -25
4 -13 -32 -45 -48 -44 -5 1 -9 7 -7 14 4 19 -19 15 -48 -7 -14 -11 -28 -20
-33 -20 -4 0 -30 -17 -58 -37 -27 -21 -54 -39 -59 -39 -6 -1 -13 -2 -17 -3 -5
0 -21 -12 -37 -26 -23 -20 -26 -26 -13 -31 16 -6 87 40 87 57 0 5 9 9 21 9 15
0 19 -4 15 -16 -3 -9 -6 -18 -6 -20 0 -2 -7 -4 -15 -4 -8 0 -15 -4 -15 -8 0
-5 -18 -16 -40 -26 -22 -10 -40 -22 -40 -27 0 -5 -6 -9 -12 -9 -7 0 -24 -9
-38 -20 -14 -11 -32 -20 -41 -20 -9 0 -24 -11 -33 -25 -9 -14 -23 -25 -32 -25
-8 0 -40 -16 -70 -35 -30 -19 -59 -35 -64 -35 -6 0 -18 -4 -28 -10 -40 -22
-191 -89 -216 -96 -14 -3 -26 -10 -26 -15 0 -5 -7 -9 -15 -9 -27 0 -16 -20 13
-21 16 -1 20 -3 10 -6 -10 -2 -18 -8 -18 -13 0 -9 -39 -25 -52 -22 -5 1 -8 -3
-8 -10 0 -6 -3 -8 -7 -5 -3 4 -16 0 -29 -8 -12 -8 -33 -16 -47 -19 -14 -2 -37
-12 -50 -21 -14 -9 -47 -23 -74 -30 -26 -8 -83 -26 -126 -41 l-77 -27 0 -99
c0 -54 4 -98 8 -98 5 0 47 14 93 31 46 17 95 34 109 39 14 4 48 16 75 27 28
12 82 33 120 48 39 16 115 48 170 72 55 25 123 54 150 66 70 31 321 158 440
224 224 124 515 318 803 536 264 199 931 735 1147 922 33 28 123 102 200 163
77 62 165 132 195 157 30 25 100 81 155 126 55 44 109 88 120 98 11 9 38 30
60 46 22 16 42 33 45 36 10 11 168 119 175 119 23 0 -19 -50 -165 -198 -172
-175 -200 -207 -200 -230 0 -10 7 -12 27 -7 l27 6 -19 -21 c-17 -19 -21 -20
-31 -6 -6 9 -14 16 -17 16 -3 0 -36 -35 -73 -77 -104 -121 -336 -355 -480
-483 -134 -120 -320 -281 -360 -312 -16 -12 -31 -25 -34 -28 -3 -3 -27 -23
-55 -45 -71 -57 -93 -75 -139 -115 -23 -20 -66 -54 -96 -77 -30 -23 -65 -51
-77 -62 -12 -12 -25 -21 -28 -21 -5 0 -120 -86 -143 -108 -8 -6 -22 -16 -31
-22 -10 -5 -57 -37 -104 -72 -208 -153 -433 -298 -592 -383 -114 -60 -177
-105 -149 -106 33 -1 -25 -19 -73 -23 -25 -2 -59 -14 -83 -30 -22 -14 -48 -26
-59 -26 -11 0 -24 -6 -28 -13 -4 -7 -28 -19 -52 -27 -24 -8 -45 -20 -48 -27
-3 -7 -18 -13 -33 -13 -19 0 -36 -9 -48 -25 -11 -14 -30 -25 -43 -25 -13 0
-51 -14 -84 -30 -33 -16 -67 -30 -76 -30 -8 0 -19 -4 -25 -9 -5 -5 -76 -32
-159 -61 -255 -90 -299 -106 -330 -122 -16 -8 -48 -19 -70 -22 -68 -13 -115
-30 -115 -43 0 -7 5 -13 10 -13 6 0 10 5 10 10 0 13 37 13 45 0 3 -5 15 -10
26 -10 11 0 17 5 14 10 -4 6 7 10 27 10 19 0 42 6 53 14 11 7 39 16 62 20 23
3 54 11 70 18 26 10 212 54 278 65 17 2 50 14 74 26 32 16 46 18 48 10 3 -9
11 -6 26 7 11 11 32 20 46 20 14 0 46 14 70 30 24 17 52 30 61 30 10 0 62 22
116 50 54 27 104 50 110 50 6 0 17 6 23 14 6 8 24 16 39 18 15 3 35 9 45 13
11 5 17 3 17 -6 0 -8 -30 -27 -65 -44 -36 -16 -65 -33 -65 -37 0 -5 -7 -8 -16
-8 -9 0 -37 -11 -63 -24 -25 -13 -68 -32 -94 -42 -26 -9 -50 -21 -53 -25 -3
-5 -21 -9 -40 -9 -19 0 -34 -4 -34 -10 0 -5 -9 -10 -19 -10 -11 0 -22 -4 -25
-9 -5 -7 -53 -21 -71 -20 -3 0 -17 -9 -32 -21 -18 -14 -40 -20 -79 -20 -29 0
-54 -5 -56 -10 -2 -6 -46 -22 -98 -36 -52 -14 -99 -29 -105 -33 -5 -5 -26 -11
-45 -15 -19 -3 -47 -12 -61 -20 -30 -16 -70 -26 -124 -32 -22 -3 -52 -11 -66
-18 -14 -7 -33 -12 -42 -10 -11 1 -17 -5 -17 -17 0 -19 42 -19 2300 -19 l2300
0 0 2045 c0 1125 -1 2045 -3 2045 -2 0 -43 -41 -90 -92z m-1497 -1498 c17 -10
16 -12 -27 -34 -39 -20 -43 -20 -43 -1 0 8 11 17 25 21 14 3 22 10 19 15 -7
12 7 11 26 -1z m74 -31 c-3 -5 -10 -7 -15 -4 -5 4 -9 -2 -10 -12 0 -11 -3 -13
-6 -5 -6 16 16 44 28 36 5 -3 7 -10 3 -15z m-204 -60 c0 -5 -4 -9 -10 -9 -5 0
-10 7 -10 16 0 8 5 12 10 9 6 -3 10 -10 10 -16z m140 11 c0 -5 -4 -10 -10 -10
-5 0 -10 5 -10 10 0 6 5 10 10 10 6 0 10 -4 10 -10z m-174 -60 c16 -9 16 -11
2 -6 -11 3 -19 -2 -23 -15 -4 -10 -11 -17 -16 -14 -5 4 -9 1 -9 -4 0 -6 -7
-11 -15 -11 -9 0 -12 6 -9 15 4 8 12 15 20 15 8 0 14 5 14 10 0 6 -9 10 -20
10 -11 0 -20 4 -20 8 0 12 55 6 76 -8z m82 -14 c-7 -8 -15 -12 -17 -11 -5 6
10 25 20 25 5 0 4 -6 -3 -14z m-668 -476 c0 -5 -5 -10 -11 -10 -5 0 -7 5 -4
10 3 6 8 10 11 10 2 0 4 -4 4 -10z m-980 -713 c0 -16 -98 -69 -105 -57 -3 5 9
17 27 26 18 9 35 20 38 24 4 6 19 13 38 19 1 1 2 -5 2 -12z m170 -573 c0 -11
-45 -43 -62 -44 -9 0 -20 -5 -23 -10 -4 -6 -10 -8 -15 -5 -5 3 -11 1 -15 -5
-3 -5 -15 -15 -26 -20 -14 -8 -19 -7 -19 3 0 7 21 23 48 34 26 12 56 28 67 37
20 15 45 21 45 10z"/>
<path d="M3293 2703 c-17 -6 -17 -33 0 -33 14 0 37 20 37 32 0 9 -18 9 -37 1z"/>
<path d="M2991 2565 c-27 -10 -30 -13 -15 -17 10 -3 26 -9 35 -12 11 -5 18 -1
22 13 7 27 -1 30 -42 16z"/>
<path d="M2285 1970 c-3 -5 -1 -10 4 -10 6 0 11 5 11 10 0 6 -2 10 -4 10 -3 0
-8 -4 -11 -10z"/>
<path d="M913 978 c-27 -13 -30 -28 -5 -28 9 0 23 9 30 20 14 22 8 24 -25 8z"/>
<path d="M858 943 c-10 -2 -18 -11 -18 -19 0 -12 3 -12 20 -2 11 7 20 16 20
20 0 5 -1 7 -2 7 -2 -1 -11 -3 -20 -6z"/>
<path d="M788 906 c-10 -7 -18 -16 -18 -20 0 -12 21 -5 40 14 23 23 5 27 -22
6z"/>
<path d="M385 660 c-9 -15 4 -30 20 -23 8 3 15 9 15 13 0 12 -29 20 -35 10z"/>
</g>
</svg>
